<svg xmlns="http://www.w3.org/2000/svg" enable-background="new 0 0 2000 2000" viewBox="0 0 2000 2000"><switch><g><path fill="#c7f8ff" d="M1429.9,529.2c-13.7-0.1-27.2,0.6-40.6,2c-48.7,5.1-97.1-12.7-136.3-48.9c-58-53.6-130-85.3-207.9-85.3
				c-80.3,0-154.2,33.6-213,90.1c-44.7,42.9-101.7,60.6-157.5,49.4c-22.6-4.6-45.7-7-69.2-7.2c-245.8-1.8-444.8,242.3-445.1,545.9
				c-0.2,302.1,197.9,547,442.4,547c68.8,0,134-19.4,192.1-54.1c139.1-83,301-83,440.1,0c58.1,34.6,123.3,54.1,192.1,54.1
				c242.8,0,439.9-241.5,442.4-540.6C1872,779.5,1674.4,531.1,1429.9,529.2z"/><path fill="#fff" d="M1653 1457.5c1.3-3.4 2-7 2.2-10.7.9-17.8-12.8-32.9-30.6-33.8-11-.6-21 4.5-27.2 12.6.4-2.3.6-4.7.8-7.1 1.8-35.6-25.6-65.9-61.2-67.6-19.7-1-37.8 7-50.4 20.4-8.9-32.9-38.2-57.8-74-59.6-42.2-2.1-78.5 28.5-84.2 69.6-7.4-5.2-16.3-8.4-26-8.9-27.7-1.4-51.2 19.9-52.6 47.6 0 .2 0 .4 0 .6-6.9-7.8-16.8-12.9-28-13.5-22.1-1.1-40.9 15.9-42 38-1.7 34.4 31.7 42.8 59.1 44.8 87.2 6.5 174.6-1.7 261.8-4.9 20.6-.8 41.2-1.4 61.8-2 19.1-.6 38.4-.9 57.4-3.2 7.1-.9 14.3-2.5 20.3-6.3C1646.1 1469.8 1650.5 1464 1653 1457.5zM631.6 689.2c3.2-8.5.4-18.8-7.6-23.9-2.9-1.8-6.2-2.9-9.6-3.1-6.7-.3-12.8 2.7-16.6 7.7.2-1.4.4-2.9.5-4.3 1.1-21.6-15.6-40-37.2-41.1-12-.6-23 4.3-30.6 12.4-5.4-20-23.2-35.1-45-36.2-25.7-1.3-47.7 17.3-51.2 42.3-4.5-3.1-9.9-5.1-15.8-5.4-16.8-.8-31.2 12.1-32 28.9 0 .1 0 .3 0 .4-4.2-4.7-10.2-7.9-17-8.2-13.4-.7-24.9 9.7-25.6 23.1-1.1 20.9 19.8 23 35.9 27.3 56.1 15 95.2 21 147.9 14.8 13.4-1.6 26.8-3.8 40-6.6 9.5-2 18.8-4.4 28.1-6.9 6.1-1.6 12.2-3.3 17.8-6.1 5.2-2.5 10.5-4.6 14.4-9C629.6 693.4 630.8 691.4 631.6 689.2z"/><path fill="#f2986b" d="M389.7,1254.9c0,0-1.9,17.7,6.7,32c8.6,14.3-22.8,11.5-27.2,7.6s-3.3-47.9-3.3-47.9L389.7,1254.9z"/><path fill="#ffaf82" d="M345.1,1194.3c0,0-7.8,14.5,2.3,33.3c8.7,16.1,33.6,37.5,53.1,32.1c26.5-7.3,37.4-22.8,18.3-46.3
							C399.7,1189.9,373.2,1160.7,345.1,1194.3z"/><path fill="#c0473f" d="M385.1,1182.3c0,0-14.2,51.7-23.4,41.6c-11.7-12.9-13,14,1.9,18.8c14.2,4.6,4.7,21.7-3.3,17.1
							c-8-4.6-29.2-2.3-41.4-14.4c-12.2-12.1-14.3-64.9,14.6-69.6C362.3,1171.1,377.9,1149.7,385.1,1182.3z"/><ellipse cx="393.3" cy="1211" fill="#c0473f" rx="3.2" ry="6.4" transform="rotate(-45.637 393.205 1210.913)"/><path fill="#f96" d="M408.7,1201.5c0,0,14.3,8.9,22.8,8c0,0-9.7,9.2-13,7.3S408.7,1201.5,408.7,1201.5z"/><ellipse cx="399.8" cy="1225.4" fill="#f96" rx="10.6" ry="4.4" transform="rotate(-30.072 399.896 1225.533)"/><path fill="#f78552" d="M420.6 1235.3c-3.6 2.7-9.2 5.3-15.3 2.2-.5-.3-.7-.9-.5-1.4.3-.5.9-.7 1.4-.5 8.7 4.5 16.4-5 16.7-5.4.4-.5 1-.5 1.5-.2.5.4.5 1 .2 1.5C424.6 1231.5 423.1 1233.4 420.6 1235.3zM384.1 1208.3c-.1.1-.3.2-.5.2-.6.1-1.1-.3-1.2-.9 0-.2-.7-5.4 4.8-8.8.5-.3 1.2-.2 1.5.3s.2 1.2-.3 1.5c-4.3 2.7-3.8 6.6-3.8 6.7C384.5 1207.7 384.4 1208 384.1 1208.3z"/><path fill="#1581ff" d="M368,1512.5l167-27.3l9.4-18.3c-3.3-60.5-178.6-34-181.6-6.4C359.8,1487.9,368,1512.5,368,1512.5z"/><path fill="#0a64bf" d="M408.7,1467.4c20.1,0,40.2,0,60.3,0c1.4,0,1.4-2.1,0-2.1c-20.1,0-40.2,0-60.3,0
								C407.3,1465.3,407.3,1467.4,408.7,1467.4L408.7,1467.4z"/><g><path fill="#1593ff" d="M438.6,1428.5c0,0-20.5,235.4-44.4,231.1c0,0-35.8-20.4-33.8-35.3c2-14.9-15.8-185.2,7.7-198
							S438.6,1428.5,438.6,1428.5z"/><path fill="#1581ff" d="M413.5,1463.8c0,0-11.7,17.2-24.5,13.7c0,0-9.4,48.2,1.5,48.8c10.9,0.7,23.2-12.4,25.4-26.9
							C418.2,1485,413.5,1463.8,413.5,1463.8z"/></g><g><path fill="#ffaf82" d="M368.1,1318.2c0,0,90.8,48.7,109.2,31.1c18.4-17.6-7.8-16.8-25-24.2c-32.8-14.3-77.8-35.9-77.8-35.9
						L368.1,1318.2z"/></g><g><path fill="#c0473f" d="M352.5,1332.6c-3.5-51.6,0.7-49.6,0-58.8c-1.4-18.1,23.4,33.6,49.5,7.3l6.7,48.1
							c6.3,28.1,1.4,84,34.5,101l-14.7,9.2l-19.1,1.2c0,0-49.9,51.2-57,12C347.6,1425.7,354.6,1367.8,352.5,1332.6z"/></g><g><path fill="#ffaf82" d="M368.6,1345.5c0,0,3,109.2,23.7,107c20.7-2.2,72.3-20.2,93.7-21.3c0,0-4.8-16.5-22.8-14.3
						c-18,2.2-57.1,2.5-57.1,2.5l-8.1-92.4c0,0-10-6.5-19.3,2C367.4,1339.5,368.6,1345.5,368.6,1345.5z"/></g><g><path fill="#ffaf82" d="M454.6,1341.1c0,0,39.3-85.4,47.6-116.3c8.3-30.9,11.7,37.5,3.8,60.6
							C498.1,1308.5,481,1379.9,454.6,1341.1z"/><path fill="#ffeeae" d="M494,1219.7c-8.1,4.1-13.3,12.7-12.4,21.8c0.6,6,3.6,10.9,12.4,9c20.1-4.4,22.5,1.4,28.4,17.6
							c5.9,16.3,5.7,29.4,17.9,20.5c12.2-8.9,20.2-11.1,20.5-24.2s-21.7-20.1-12.4-32.6c9.3-12.6,12.7-12.1,0.4-23.9
							c-12.4-11.7-31.4-17-35.8-9.1s-13.2,17.9-18.8,20.8C494.1,1219.7,494,1219.7,494,1219.7z"/><path fill="#ffaf82" d="M513.1,1202.4c0,0-9.5-3.2-16.2,4.3s-4.2,28.5,1.1,23.1C503.4,1224.4,518.8,1212.7,513.1,1202.4z"/></g><g><path fill="#ffab34" d="M456.7,1644.2c0,0-6.6,10.2-2.9,13.1c3.7,2.9,131,5.4,131,5.4l0.8-3.8L456.7,1644.2z"/><path fill="#ffba34" d="M497.3,1609.3c0,0,2.2,14.9,31.7,27.9c11.2,5,30.1,10.5,48.2,9.6c4.8-0.2,8.8,3.6,8.6,8.4
							c-0.1,1.4-0.1,2.8-0.2,3.7l-121.9-4.5c-5.2-0.2-8.7-5.3-7-10.3l15.6-45.5L497.3,1609.3z"/><path fill="#ffab34" d="M538.6 1633.6c-4.1-2.6-8.9-5-13.7-3.2-4.6 1.7-6.3 6.4-6.9 10.9-.5 3.5 4.9 4.7 5.4 1.2.4-2.7.9-6.4 4.1-7.1 3.1-.7 6.1 1.5 8.6 3C539 1640.3 541.6 1635.4 538.6 1633.6L538.6 1633.6zM542.6 1650.3c2.1-5.3 7.6-7.3 12.5-4.3 3 1.8 5.6-3.1 2.6-4.9-7.3-4.4-16.8-1.3-19.9 6.6C536.4 1651 541.3 1653.6 542.6 1650.3L542.6 1650.3z"/></g><g><path fill="#1581ff" d="M495.4,1461.3c0,0-51.5,149.1-23.5,153.5c28,4.4,61.1-2.7,64.2-22.2c3.1-19.5,25.2-162.5-5.9-136.6
							C512.4,1471,495.4,1461.3,495.4,1461.3z"/><path fill="#0a64bf" d="M499.4,1602c4.7-14.1,9.4-28.2,14.1-42.4c6.6-19.6,13.3-39.6,12.8-60.5c0-1.4-2.2-1.4-2.1,0
								c0.5,21.4-6.7,41.7-13.4,61.7c-4.5,13.5-9,27.1-13.5,40.6C496.9,1602.7,499,1603.3,499.4,1602L499.4,1602z"/></g><g><path fill="#ffab34" d="M211.5,1584.5l-6-1.7c0,0-14.7,32-8.4,54.3c6.4,22.2,3.8,21.9,16.7,22.6c13,0.8,46.8,0,46.8,0l-0.9-2.9
						l-24.3-4.7l-19.7-15.9L211.5,1584.5z"/><path fill="#ffba34" d="M287.3,1602.3c0,0-37.3,3.5-75.8-17.8c-4.8-2.6-17.6,72.2,3,72.2c23.9,0,45.3,0,45.3,0
									c-5.5-9.9-41.4-5.3-29.8-35.6c2.8-7.3,57.8,6.8,57.8,6.8L287.3,1602.3z"/><path fill="#1593ff" d="M389.2,1617.4c0,0-115.5-54.4-127.3-40.6c-11.9,13.8-26.5,41.7-6.7,50.9s145.1,29,145.1,29
									L389.2,1617.4z"/><path fill="#1581ff" d="M268.9,1604.4c24.8,9.8,50.9,20.8,77.4,24.9c2.7,0.4,3.8-3.7,1.1-4.1c-26.4-4-52.6-15.1-77.4-24.9
									C267.5,1599.3,266.4,1603.4,268.9,1604.4L268.9,1604.4z"/><g><path fill="#ffab34" d="M239.4,1639.7c-7.7-3.7-16.6-2.5-23,3.3c-2.6,2.4,1.3,6.3,3.9,3.9c4.4-4.1,10.9-5.1,16.3-2.4
							C239.7,1646,242.5,1641.3,239.4,1639.7L239.4,1639.7z"/></g><g><path fill="#ffab34" d="M235.1,1630.2c1.6-5.1-4.3-6.1-7.9-7c-4.6-1.2-9.7-2.4-13.3,1.7c-2.3,2.7,1.6,6.6,3.9,3.9
							c1.8-2.1,4.5-1.2,6.9-0.6c1.2,0.3,4.7,1.8,5.1,0.5C228.7,1632.2,234,1633.6,235.1,1630.2L235.1,1630.2z"/></g></g><g><path fill="#29cbff" d="M1305,1046.7c-0.7,51.2-11.1,102.2-30.2,149.8c-17.8,44.3-43.3,85.6-75.8,121.4
							c-68.1,75-159.5,118.9-254.5,130.7c-41.8,5.2-84.2,4.2-125.6-3.1c-23.5-4.1-46.7-10.3-69.3-18.5
							c-33.3-12.2-65.3-28.8-94.8-49.9c-19.6-14-38.1-30.1-55.3-48.1c-20.4-21.4-38.2-44.9-53.2-70c-3.8-6.4-7.5-12.8-10.9-19.4
							c-9.6-18.1-17.8-36.9-24.6-56.2c-21-59.9-28.4-124.5-20.5-187.9c0.3-2.4,0.6-4.8,1-7.2c21.1-147.1,124.9-265.6,262.5-318.3
							c95.5-36.6,195.9-35.7,284.7-4.3c72.2,25.6,136.6,71.3,184.4,133.6c0.2,0.2,0.3,0.4,0.5,0.6c23.2,30.4,42.4,64.7,56.6,102.4
							c0.6,1.6,1.2,3.2,1.8,4.8c0.3,0.7,0.5,1.4,0.7,2.1c0.4,1,0.8,2.1,1.1,3.2c0.8,2.2,1.5,4.3,2.2,6.5v0
							c2.2,6.8,4.3,13.7,6.1,20.6C1301.2,974.4,1305.5,1010.6,1305,1046.7z"/><path fill="#8aa816" d="M1285.7 918.7c-8.3-1-18.9-4.4-32.3-10.5-57.5-26.5-129.8 10.4-163.6-4.9-21.9-9.9 27 68.7 48.4 73.5 79.3 17.7 25.5 210.5 26.1 237.4.5 22.5 9.9 54.4-17.6 70-6.5 3.7-14.9 6.5-25.8 8-56.9 7.9-120.1-84.3-136.2-128.1-16.1-43.8-43.1-15.2-121.9-4.1-78.8 11.2-81.9-67.1-75-106.7 6.9-39.7 52.1-52.5 77-57.7 25-5.2 0-28.3 30.5-38.9.7-.2 1.3-.5 2-.7.7-.2 1.4-.4 2.1-.6.6-.2 1.3-.3 2-.5.2 0 .3-.1.5-.1.6-.1 1.2-.3 1.9-.4.8-.2 1.6-.3 2.5-.5 1.6-.3 3.2-.6 4.8-.8 1-.2 2.1-.3 3.1-.4 1-.1 2.1-.3 3.2-.4 0 0 .1 0 .2 0 1.1-.1 2.1-.2 3.2-.3 1.1-.1 2.2-.2 3.4-.3 1.4-.1 2.7-.2 4.1-.3 2.8-.2 5.6-.4 8.4-.6 1.4-.1 2.8-.2 4.3-.3 1.4-.1 2.9-.2 4.3-.3 1.4-.1 2.9-.2 4.3-.3 1.9-.1 3.8-.3 5.8-.4 1-.1 1.9-.2 2.9-.2 1.9-.2 3.8-.4 5.7-.6 1.9-.2 3.8-.4 5.6-.7 3.7-.5 7.4-1.1 10.9-1.8 12.4-2.5 23.4-6.7 31-14 25-23.9-10.9-59.5-37-66.2-9.7-2.5-15.5 5.2-20.5 15.8-8.4 17.7-14.5 43.2-33.5 41.3-30.3-3-54.1-18.4-55.6 1.6-1.4 20-36.3 57.6-67.7 47.3-7.1-2.3-9.7-12.6-9.4-27.4 0-.6 0-1.2 0-1.8 0-.2 0-.4 0-.6 0-.6.1-1.2.1-1.9 0-.3 0-.6 0-.9 0-.9.1-1.8.2-2.7 0-.5.1-1 .1-1.5.1-1 .2-2 .3-3.1.2-2.1.4-4.2.7-6.4.1-.7.2-1.4.3-2 2.1-16.2 6-34.8 10.3-53.5.7-3 1.4-5.9 2.1-8.9 9.6-40.4 20.4-79.4 20.1-92.5-.5-22.1 59-26 109.2-33.5 18-2.7 34.8-5.8 47.2-10.4 45.4-16.8 39.9-40.2 60.3-59.3 51.2 19.3 98.6 46.7 138.2 83.1C1226.3 794.2 1264.2 853.1 1285.7 918.7zM618.6 1040.2c-10.9 32.6-112.7 85.8-96 112.7 13.2 21.3 5.7 32.3-8.4 30.9-1.2-.1-2.5-.3-3.9-.7-15.1-42.7-23.3-88.6-23.3-136.4 0-19.9 1.4-39.5 4.2-58.7 10.2-.1 20.7-1.4 28.9-4.8 24-9.9 29.2-6.4 18.1 7.5-11.1 14-65.9 40.3-46.3 60.3 19.5 20.1 41.1-9.4 54.5-22.4 5.2-5.1 19.1-9.4 33.4-10.9C602 1015.6 625.3 1020.3 618.6 1040.2zM781.7 1285.9c-14.9 23 6 23.7-7.4 59.3-12.3 32.5-28.6 59.1-24.3 84-34-13-65.9-30.5-94.8-51.6-2-3.3-4.1-6.3-6.1-8.8-5.9-7.2-16.9-13.1-28.3-19.4-14.7-13.4-28.4-27.8-40.9-43.2-4.7-18.4-13.6-34.4-33.6-47.4-3.9-6.4-7.6-12.8-11.1-19.4 14.2 5.2 28.7 7.7 40.8 3.9 38.8-12.3 51.6-17.5 67.2-7.1 15.5 10.4 45.9-43.3 84.5-8.6C766.4 1262.2 796.6 1262.9 781.7 1285.9zM592.7 927.2c0 0 15.9 15.9 25.9 17.4s29 31.1 38.8 17.7c9.8-13.4 12.1-12.5 32.5-26.5s57.6-64.9 44.6-78.3-.6-24.1-38.1-10.5-59.8.3-60.9 25.1C634.5 896.8 583.7 900.9 592.7 927.2z"/><path fill="#29bcff" d="M1154.3 1360c-26.7 19.7-55.2 39.2-86.8 53.7-39.2 18-82.8 27.5-122.9 34.8-41.8 5.2-84.2 4.2-125.6-3.1 9.4-21.5 16.8-50.3 15.5-86.4-3.2-91.4-37.8-126.1 18.9-123 56.8 3.2 94.6 129.1 217.5 129.2C1098.2 1365.2 1128.4 1364 1154.3 1360zM1306.1 1046.7c0 53.9-12.4 102.6-31.3 149.7-39.6-58.4-104.8-113.3-77.7-174.8 19.4-44 56.5-75.2 94.8-82.3C1301.2 973.5 1306.1 1009.5 1306.1 1046.7zM761.3 1206.7c-31.5 6.8-45.7-25.9-87.5-23.2-22 1.4-22 10.7-46.5 12.3-24.9 1.6-65.2-5.4-73.8-30.1-6.7-19.2 7.8-43 21.9-56.1 31.9-29.7 69.3-11.3 84.8-35.6 13.8-21.5-11.4-42.8 2.7-75.2 9.1-20.9 32.1-40.7 52-36.9 26.7 5.1 35.6 50.5 36.9 57.4 7 35.9-9.9 43.6-2.7 71.1 10.8 41.5 55.1 46.9 53.3 75.2C801.2 1184.3 780.9 1202.5 761.3 1206.7z"/><g><path fill="#a5a816" d="M801.7,861.2c24.7-3.6,58.4,18.3,82,42c36.1,36.3,37.4-10,70.1-21.5c-8.4,17.7-14.5,43.2-33.5,41.3
						c-30.3-3-54.1-18.4-55.6,1.6c-1.4,20-36.3,57.6-67.7,47.3C779.4,966.2,789.5,912.6,801.7,861.2z"/></g><g><path fill="#a5a816" d="M1146.7,1284.1L1146.7,1284.1c-6.5,3.7-14.9,6.5-25.8,8c-56.9,7.9-120.1-84.3-136.2-128.1
						c-16.1-43.8-43.1-15.2-121.9-4c-78.8,11.1-81.9-67.1-75-106.7c6.9-39.7,52.1-52.5,77-57.7c25-5.2,0-28.3,30.5-38.9
						c21.2-7.4,56.8-4.8,84.9-10.5c2.2,12.6-84.9,10.6-59.1,44.2c25.8,33.7-33.3,45.8-74.9,47.1c-41.6,1.4-37.4,38.8-19.4,79
						c18,40.2,135.9-47.1,174.7,31.9C1040.4,1227.5,1146.7,1284.1,1146.7,1284.1z"/></g></g><g><path fill="#fff" d="M1614.2,865.9c1.3-3.4,2-7,2.2-10.6c0.9-17.7-12.8-32.9-30.5-33.7c-11-0.6-21,4.5-27.2,12.6
						c0.4-2.3,0.6-4.7,0.8-7.1c1.8-35.5-25.5-65.7-61-67.5c-19.7-1-37.8,7-50.2,20.3c-8.9-32.8-38.1-57.7-73.9-59.5
						c-42.1-2.1-78.3,28.4-84,69.4c-7.4-5.1-16.3-8.4-26-8.8c-27.6-1.4-51.1,19.9-52.5,47.5c0,0.2,0,0.4,0,0.6
						c-6.9-7.8-16.8-12.9-28-13.5c-22.1-1.1-40.8,15.9-42,37.9c-1.7,34.3,31.7,42.7,59,44.7c87,6.5,174.2-1.7,261.2-4.9
						c20.6-0.8,41.1-1.4,61.7-2c19.1-0.6,38.3-0.9,57.3-3.2c7.1-0.8,14.2-2.5,20.3-6.3C1607.3,878.1,1611.7,872.4,1614.2,865.9z"/><path fill="#68181a" d="M1307.8,511.2c0,0,6.2,45.9,28.7,58.1c22.5,12.2,49.3,13.4,54.2,33.5c4.9,20.1,9.1,66.3,43.8,57.2
							s24.3-28,42.6-19.5c18.3,8.5,48,26.5,53.5,16c5.5-10.5-28-56.2-28-56.2L1373,494.4L1307.8,511.2z"/><path fill="#e77046" d="M1369.6,554.4c0,0,1.7,21.1,8.3,30.4c0,0-14.9,5.3-20.5-5.7c0,0-0.1-14.1-1.6-21.1
							C1354.2,551,1369.6,554.4,1369.6,554.4z"/><path fill="#ffaf82" d="M1307.8,511.2c0,0,17.6,32.6,23.5,38.3c7.9,7.7,11.6,11.3,24.4,12c12.8,0.7,23.5-20,23.5-31.5
							s-25.4-53.9-45-39.7C1314.5,504.4,1307.8,511.2,1307.8,511.2z"/><path fill="#d15b37" d="M1307.8,511.2c0,0,25.7-18.4,39-5.2c13.3,13.3,21.4,16.6,26,32.6c4.5,16,17.1,22.1,29.3,23.2
							s12.7,27.1,23.8,38.1c11,11,35.4,23.2,61.3,18.2c26-5,20.4,38.7,47.5,38.7s42-29.3,39.8-34.2s-16.6,9.9-31.5-2.2
							c-14.9-12.2-33.1-53-67.9-61.9c-34.8-8.8-55.8-20.1-67.9-57.3s-50.3-47.1-71.8-35.5S1286.3,520.7,1307.8,511.2z"/><path fill="#e77046" d="M1337.1,530c0,0,0.5,9.2,0,15.4c0,0,5,1.7,8.5-5.5L1337.1,530z"/><ellipse cx="1329.7" cy="533" fill="#c1512f" rx="3.1" ry="6.3" transform="rotate(-34.03 1329.714 533.03)"/><ellipse cx="1329.7" cy="533" fill="#c1512f" rx="3.1" ry="6.3" transform="rotate(-34.03 1329.714 533.03)"/><ellipse cx="1343.9" cy="522.7" fill="#c1512f" rx="3.1" ry="6.3" transform="rotate(-34.03 1343.975 522.695)"/><path fill="#e77046" d="M1346.1 556.1c-.6 0-1.1-.5-1.1-1.1 0-.6.5-1.1 1-1.1 0 0 5.1-.1 8.8-4 3-3.1 4.4-7.7 4.2-13.7 0-.6.4-1.1 1-1.1.7 0 1.1.4 1.1 1 .2 6.6-1.4 11.8-4.8 15.3C1352 555.9 1346.3 556.1 1346.1 556.1 1346.1 556.1 1346.1 556.1 1346.1 556.1zM1334.4 516c-.3 0-.5-.1-.7-.3-.4-.4-.5-1.1-.1-1.5.2-.2 4.9-5.5 10.7-3.6.6.2.9.8.7 1.3-.2.6-.8.9-1.3.7-4.4-1.5-8.4 2.9-8.4 3C1335 515.9 1334.7 516 1334.4 516zM1319.3 524.6c0 0-.1 0-.1 0-.6-.1-1-.6-.9-1.2.4-3.6 7.6-4.4 9-4.6.6-.1 1.1.4 1.2 1 .1.6-.4 1.1-1 1.2-2.9.3-6.9 1.4-7.1 2.7C1320.3 524.2 1319.8 524.6 1319.3 524.6z"/><path fill="#d15b37" d="M1377.6,477.8c14.6,12.9,29,26.2,44.2,38.5c13.6,10.9,27.6,18,44.5,21.9c8.9,2,18,3.9,26.1,8.4
							c6.7,3.7,12.8,8.5,18.7,13.4c11.1,9.1,22.5,18.6,37,21.3c3.5,0.6,5-4.7,1.5-5.3c-15.3-2.8-26.6-13.5-38.3-22.9
							c-5.1-4.1-10.3-8.1-16.1-11.2c-7.4-4-15.4-6.2-23.6-8.1c-8.9-2-17.7-4-25.9-8.1c-7.8-3.9-14.8-9-21.5-14.5
							c-14.6-12-28.5-24.8-42.7-37.3C1378.9,471.6,1375,475.4,1377.6,477.8L1377.6,477.8z"/><path fill="#d15b37" d="M1409.4,525c13.7,8.3,28.4,14.2,43.7,19c13,4,26.5,7.2,38.6,13.6c12.9,6.9,23.3,18.1,34.7,27.1
							c11.6,9.2,24.1,17,38.4,21c3.4,1,4.9-4.4,1.5-5.3c-15.5-4.3-28.5-13.4-40.8-23.5c-10.5-8.6-20.2-18.6-32.4-24.8
							c-11.2-5.7-23.5-8.9-35.5-12.6c-15.9-4.8-31.2-10.8-45.5-19.4C1409.1,518.5,1406.3,523.2,1409.4,525L1409.4,525z"/><g><path fill="#ffa816" d="M1357.1,570.1c0,0-49.7,10.3-44.8,13.7c4.9,3.4,8.4,35.5,9.1,44.8c0.7,9.2,19,68.1,19,68.1
						s74.6,16.1,72.7,0c-1.9-16.1-9.1-97.3-9.3-128l-31.5,1.9C1372.3,570.6,1364.4,582.6,1357.1,570.1z"/></g><g><path fill="#ffaf82" d="M1313.2,583.8c0,0-43.2,96.4-55.3,107.9c-12.1,11.4-59.3,47.1-66.4,47.1s-26.3,0.8-34.2,0.1
						c-4.9-0.4-13.8,1.9-19.7,3.7c-1,0.3-0.7,1.7,0.3,1.7c3.7-0.1,8.7-0.1,13.7,0.3c10,0.7,31.2,4.5,31.2,4.5l-14,11.1
						c-0.9,0.6-0.3,2.1,0.7,1.9c2.5-0.3,6.7-1.4,13.3-4.4c14.2-6.6,11.5-4.7,20.8-9c9.3-4.3,74.3-51.4,76.4-55.7
						c2.1-4.3,40.6-77.1,40.6-77.1S1319.3,591.6,1313.2,583.8z"/></g><g><path fill="#ffa816" d="M1355.6 953.6c0 0-9.9 69.1 14.7 68.5 17.3-.4 23.9-.7 8.7-70.6L1355.6 953.6zM1413.1 943.8c0 0-17.9 74.4 15.3 74.4 27.9 0 4.3-74.9 4.3-74.9L1413.1 943.8z"/><path fill="#2b0fd2" d="M1340.4,696.7c0.3-0.4-77.1,99.1-31.4,100.8c55.6,2.1,159.5-7.7,162.8-19.2
							c3.3-11.5-58.7-81.6-58.7-81.6H1340.4z"/><path fill="#2b0fff" d="M1346.1,954.5c0,0-38.2-174.3-19.7-210.2c18.5-35.9,47.3-28.3,54.6-15.8s8.9,222,8.9,222L1346.1,954.5z"/><path fill="#2b0fff" d="M1450 941.6c0 0 20.3-210.8-25.5-228.5-45.9-17.7-37 94.9-34.6 114.2 2.4 19.3 6.4 109.4 12.9 114.2C1409.2 946.5 1450 941.6 1450 941.6zM1355.6 718.1c0 0-46.5 34.5-57 59.6-8.8 21.1 2.4 19.6 22.8 19.9C1341.8 797.8 1355.6 718.1 1355.6 718.1z"/><path fill="#d15b37" d="M1363 1004.8c6.3 0 12.5 0 18.8 0 3.5 0 3.6-5.5 0-5.5-6.3 0-12.5 0-18.8 0C1359.4 999.3 1359.4 1004.8 1363 1004.8L1363 1004.8zM1363.5 990.8c5.6.3 11.1 0 16.7-.9 3.5-.5 2-5.8-1.5-5.3-5 .8-10.1.9-15.2.7C1359.9 985.1 1359.9 990.6 1363.5 990.8L1363.5 990.8zM1417.9 1004.2c5.9.2 11.9.1 17.8-.2 3.5-.2 3.6-5.7 0-5.5-5.9.3-11.9.3-17.8.2C1414.4 998.6 1414.4 1004.1 1417.9 1004.2L1417.9 1004.2zM1416.1 989.4c5.7 0 11.4 0 17 0 3.5 0 3.6-5.5 0-5.5-5.7 0-11.4 0-17 0C1412.5 983.9 1412.5 989.4 1416.1 989.4L1416.1 989.4z"/></g><path fill="#ffaf82" d="M1533.7,782.9c-11.9-12.8-38.7-16-38.7-16c-10-26-51.1-82.6-54.7-94.7
					c-30.5-100.5-36.5-103.4-36.5-103.4V607l20.9,71.1c0.6,1.9,1.4,3.7,2.5,5.4c5.1,7.7,20.7,31.3,31.5,45.2
					c13,16.7,38.1,52.3,38.1,52.3l11.8,6.5c0,0-0.4-4.2-4.7-7.7c11.5-0.9,22.9,2.6,28.6,4.8C1533.6,785,1534.4,783.7,1533.7,782.9z"/></g><g><path fill="#ffba34" d="M616.1,645.7c0,0-21.4-15.3-6.9-26.7c14.4-11.4,22.4-1.7,29.6,0.7c7.2,2.4,17.6,14.2,6.6,23.1
							c-11,8.9-21.8,8.2-21.8,8.2L616.1,645.7z"/><path fill="#ffab34" d="M623.5 653.8c0 0 5.3-14.2 17.6-14.2 12.3 0 18.6 4.4 18.6 14.2s-6.5 14.3-7.2 18.2c-.7 3.9-11.8 9-15.7 6.9C633 676.8 618.5 665.3 623.5 653.8zM623.5 650.9c0 0-4.5-17-10.3-21.9-5.8-4.8-7.3-5-13.3-1.1-6 3.9-5.9 14.2-9 19-3 4.8-3.9 15.9 3.6 17.7 7.5 1.8 20.9.6 24.9-5.2C623.5 653.8 623.5 650.9 623.5 650.9z"/><path fill="#ffba34" d="M624.4,654.6c-7.5-3.1-16.4-1.8-22.3,3.8c-2,1.9-3.3,4-3.3,6.4c0,8.1,6.3,17.3,15,14.8
							c8.7-2.5,11.4-1.2,16.8,0.4c5.4,1.6,16.5-4.7,14.1-12.2C643.3,663.2,632.5,658,624.4,654.6z"/><circle cx="624.2" cy="649.5" r="6.1" fill="#679208"/><path fill="#679208" d="M1037.9,1749.9c-1.2,0-2.3-0.7-2.9-1.8c-0.4-0.9-40-86.1-12.8-161.9c13.9-38.6,42.6-68.3,85.2-88.3
						c105.6-49.5,68.2-134.3,38.2-202.5c-12.6-28.7-23.5-53.4-21.7-71.3c6.8-66.8,33.8-108.4,57.7-145.1
						c28.3-43.5,50.6-77.9,31.2-138.5c-31.1-97.6-80.4-113.6-233.8-117.8c-47.6-1.3-95.4,3.8-141.6,8.7
						c-100.2,10.6-186.7,19.8-218.1-45.2c-25.1-51.9-19.8-72.5-10.9-80.6c8.7-7.9,24.4-6.6,41,3.4c1.5,0.9,2,2.9,1.1,4.4
						c-0.9,1.5-2.9,2-4.4,1.1c-13.9-8.4-27-10-33.4-4.1c-4.8,4.4-13.2,20.2,12.4,73.1c29.4,60.9,113.9,51.9,211.7,41.6
						c46.4-4.9,94.4-10,142.4-8.7c74,2,127.4,6.8,164.7,24.2c36.1,16.9,58.5,46.2,75,98c20.3,63.6-3.9,100.8-32,144
						c-23.4,36.1-50,77-56.7,142.2c-1.7,16.2,8.9,40.3,21.2,68.1c29.5,67,69.9,158.7-41.3,210.9c-41,19.2-68.6,47.7-81.9,84.7
						c-26.4,73.3,12.1,156.1,12.5,157c0.8,1.6,0.1,3.5-1.5,4.3C1038.8,1749.8,1038.3,1749.9,1037.9,1749.9z"/><ellipse cx="1038.2" cy="1746.7" fill="#679208" rx="49.6" ry="4.5"/><path fill="#679208" d="M604.6 722.6c0 0-.1 0-.1 0-1.2-.1-2.1-1.1-2-2.3.1-2 3.5-50.1 20-72.1.7-.9 2-1.1 3-.4.9.7 1.1 2 .4 3-15.7 21-19.1 69.3-19.2 69.8C606.7 721.7 605.8 722.6 604.6 722.6zM894.9 824.7c-1.2 0-2.1-.9-2.1-2.1 0-1.2.9-2.1 2.1-2.1 68.1-.3 125.1-54.5 125.7-55.1.8-.8 2.2-.8 3 .1.8.8.8 2.2-.1 3C1023 769 964.8 824.3 894.9 824.7 895 824.7 894.9 824.7 894.9 824.7zM1047.4 1250.5c-.7 0-1.5-.4-1.9-1.1-.6-1-.2-2.3.8-2.9 1.9-1.1 47-26.3 71.4-17.3 6.5 2.4 10.9 6.9 13.3 13.5.4 1.1-.2 2.3-1.3 2.7-1.1.4-2.3-.2-2.7-1.3-2-5.4-5.5-9-10.8-11-22.6-8.4-67.4 16.8-67.8 17C1048.1 1250.4 1047.7 1250.5 1047.4 1250.5zM1180.5 1407.9c-.1 0-.2 0-.3 0-1.2-.2-2-1.2-1.8-2.4 6.6-49.4 53.3-72.5 53.7-72.8 1.1-.5 2.3-.1 2.8 1 .5 1.1.1 2.3-1 2.8-.4.2-45.1 22.4-51.4 69.5C1182.4 1407.1 1181.5 1407.9 1180.5 1407.9z"/><path fill="#ffeeae" d="M1008.7,760.6c0,0-35-25.1-11.3-43.8c23.6-18.7,36.6-2.7,48.4,1.2c11.8,3.9,28.9,23.2,10.9,37.8
							c-18,14.6-35.7,13.4-35.7,13.4L1008.7,760.6z"/><path fill="#ffffc5" d="M1020.9 773.9c0 0 8.7-23.3 28.8-23.3s30.5 7.3 30.5 23.3-10.6 23.5-11.7 29.9c-1.1 6.4-19.3 14.7-25.7 11.3S1012.8 792.8 1020.9 773.9zM1020.9 769.3c0 0-7.4-27.9-16.8-35.8-9.4-7.9-12-8.1-21.9-1.7-9.8 6.4-9.7 23.3-14.7 31.1-4.9 7.9-6.4 26.1 5.9 29s34.3.9 40.8-8.5C1020.9 773.9 1020.9 769.3 1020.9 769.3z"/><path fill="#ffeeae" d="M1022.3,775.2c-12.4-5.1-26.8-3-36.5,6.3c-3.2,3.1-5.5,6.6-5.5,10.5c0,13.3,10.3,28.3,24.6,24.3
							c14.3-4.1,18.7-1.9,27.6,0.7c8.9,2.6,27.1-7.7,23.1-20C1053.3,789.3,1035.7,780.7,1022.3,775.2z"/><circle cx="1022.1" cy="766.9" r="9.9" fill="#ffba34"/><path fill="#ffba34" d="M1037.6,1243.8c0,0-25.5-18.3-8.3-31.9c17.2-13.6,26.7-2,35.3,0.9c8.6,2.9,21.1,16.9,7.9,27.6
							s-26,9.8-26,9.8L1037.6,1243.8z"/><path fill="#ffab34" d="M1046.5 1253.5c0 0 6.3-17 21-17s22.2 5.3 22.2 17c0 11.7-7.8 17.1-8.5 21.8-.8 4.7-14 10.7-18.7 8.2C1057.8 1280.9 1040.5 1267.2 1046.5 1253.5zM1046.5 1250.1c0 0-5.4-20.3-12.3-26.1-6.9-5.8-8.8-5.9-15.9-1.3s-7.1 17-10.7 22.7-4.7 19 4.3 21.2c9 2.1 25 .7 29.8-6.2S1046.5 1250.1 1046.5 1250.1z"/><path fill="#ffba34" d="M1047.5,1254.4c-9-3.7-19.6-2.2-26.6,4.6c-2.3,2.2-4,4.8-4,7.6c0,9.7,7.5,20.7,17.9,17.7
							c10.4-3,13.6-1.4,20.1,0.5s19.7-5.6,16.9-14.6C1070.1,1264.7,1057.3,1258.5,1047.5,1254.4z"/><circle cx="1047.4" cy="1248.4" r="7.2" fill="#ffe3d1"/><path fill="#ffba34" d="M1224.8,1330.8c0,0-21.4-15.3-6.9-26.7c14.4-11.4,22.4-1.7,29.6,0.7c7.2,2.4,17.6,14.2,6.6,23.1
							c-11,8.9-21.8,8.2-21.8,8.2L1224.8,1330.8z"/><path fill="#ffab34" d="M1232.3 1338.9c0 0 5.3-14.2 17.6-14.2 12.3 0 18.6 4.4 18.6 14.2 0 9.8-6.5 14.3-7.2 18.2-.7 3.9-11.8 9-15.7 6.9C1241.8 1362 1227.3 1350.5 1232.3 1338.9zM1232.3 1336.1c0 0-4.5-17-10.3-21.9-5.8-4.8-7.3-5-13.3-1.1-6 3.9-5.9 14.2-9 19-3 4.8-3.9 15.9 3.6 17.7s20.9.6 24.9-5.2S1232.3 1336.1 1232.3 1336.1z"/><path fill="#ffba34" d="M1233.1,1339.7c-7.5-3.1-16.4-1.8-22.3,3.8c-2,1.9-3.3,4-3.3,6.4c0,8.1,6.3,17.3,15,14.8
							s11.4-1.2,16.8,0.4c5.4,1.6,16.5-4.7,14.1-12.2C1252,1348.4,1241.3,1343.1,1233.1,1339.7z"/><circle cx="1233" cy="1334.7" r="6.1" fill="#ffe3d1"/><path fill="#ffba34" d="M903.2,1486.8c0,0-29.7-21.3-9.6-37.2s31.1-2.3,41.1,1c10,3.3,24.5,19.7,9.2,32.1
								c-15.3,12.4-30.3,11.4-30.3,11.4L903.2,1486.8z"/><path fill="#ffab34" d="M913.6 1498.1c0 0 7.4-19.8 24.5-19.8s25.9 6.2 25.9 19.8-9 19.9-10 25.4c-.9 5.4-16.4 12.5-21.8 9.6S906.6 1514.1 913.6 1498.1zM913.6 1494.1c0 0-6.3-23.7-14.3-30.4-8-6.7-10.2-6.9-18.6-1.5-8.4 5.4-8.3 19.8-12.4 26.4-4.2 6.7-5.4 22.2 5 24.7 10.4 2.5 29.1.8 34.7-7.3C913.6 1498.1 913.6 1494.1 913.6 1494.1z"/><path fill="#ffba34" d="M914.8,1499.1c-10.5-4.4-22.8-2.6-31,5.3c-2.7,2.6-4.6,5.6-4.6,8.9c0,11.3,8.8,24.1,20.9,20.6
								c12.1-3.5,15.9-1.6,23.4,0.6c7.5,2.2,23-6.6,19.6-17C941,1511.2,926.1,1503.9,914.8,1499.1z"/><circle cx="914.6" cy="1492.1" r="8.4" fill="#679208"/><path fill="#679208" d="M825.7,1468.6c-14.3,0-27.4-14.1-38.8-42c-19.9-48.6-4.7-74.6,12.8-104.8c19.1-32.7,42.8-73.5,30-159.2
							c-24.9-166.8-133.3-263.1-200-287.1c-72.3-26-121.2-6.2-164.4,11.3c-38.1,15.4-74.1,30-119,11.1
							c-35.9-15.1-66.9-11.2-89.7,11.3c-32.6,32.3-42.8,98.7-22.6,147.9c13,31.7,36.3,49.1,65.6,49.2c1.8,0,3.2,1.4,3.2,3.2
							c0,1.8-1.4,3.2-3.2,3.2c0,0,0,0,0,0c-32.1-0.1-57.5-18.9-71.5-53.2c-21.1-51.4-10.3-120.9,24-154.8
							c17.3-17.1,48-33.2,96.7-12.7c42.6,17.9,75.7,4.5,114.2-11.1c44.2-17.9,94.4-38.2,168.9-11.4C700,894,810.7,992.1,836,1161.7
							c13.1,87.9-11.2,129.7-30.8,163.3c-17.4,29.9-31.1,53.5-12.4,99.1c10.3,25.2,21.4,38,32.9,38c0.1,0,0.2,0,0.3,0
							c20-0.3,39.1-40.1,44.8-55.4c0.6-1.7,2.5-2.5,4.1-1.9c1.7,0.6,2.5,2.5,1.9,4.1c-0.9,2.4-22.2,59.1-50.7,59.6
							C825.9,1468.6,825.8,1468.6,825.7,1468.6z"/><path fill="#679208" d="M219.3,1147.9c-0.7,0-1.4-0.4-1.8-1.1c-29.1-49.7,1.2-121.1,2.5-124.2c0.5-1.1,1.7-1.6,2.8-1.1
							c1.1,0.5,1.6,1.7,1.1,2.8c-0.3,0.7-30.8,72.5-2.7,120.3c0.6,1,0.3,2.3-0.8,2.9C220.1,1147.8,219.7,1147.9,219.3,1147.9z"/><path fill="#ffba34" d="M207.1,1143.7c0,0-35.1-25.2-11.4-43.9s36.7-2.8,48.6,1.2s29,23.3,10.9,38
								c-18.1,14.6-35.9,13.5-35.9,13.5L207.1,1143.7z"/><path fill="#ffab34" d="M219.3 1157.1c0 0 8.7-23.4 28.9-23.4 20.2 0 30.6 7.3 30.6 23.4 0 16.1-10.7 23.5-11.8 30s-19.3 14.8-25.8 11.3S211.1 1176 219.3 1157.1zM219.3 1152.4c0 0-7.4-28-16.9-35.9-9.5-7.9-12.1-8.2-21.9-1.8-9.9 6.4-9.8 23.4-14.7 31.3-4.9 7.9-6.4 26.2 5.9 29.1 12.3 3 34.4.9 41-8.6C219.3 1157.1 219.3 1152.4 219.3 1152.4z"/><path fill="#ffba34" d="M220.7,1158.4c-12.4-5.2-26.9-3-36.6,6.3c-3.2,3.1-5.5,6.6-5.5,10.5c0,13.3,10.4,28.4,24.7,24.3
								c14.3-4.1,18.8-1.9,27.7,0.7s27.2-7.7,23.2-20.1C251.8,1172.6,234.2,1163.9,220.7,1158.4z"/><circle cx="220.5" cy="1150" r="10" fill="#ffe3d1"/><path fill="#679208" d="M883.2 1497c-31.7 0-77.1-8.4-87.5-54.4-.3-1.1.5-2.3 1.6-2.5 1.1-.3 2.3.5 2.5 1.6 15.4 68.1 113.4 48.6 114.3 48.4 1.1-.2 2.3.5 2.5 1.7.2 1.2-.5 2.3-1.7 2.5C914.7 1494.3 901.1 1497 883.2 1497zM793.8 1038.1c-.6 0-1.2-.3-1.6-.7-.3-.4-31.9-36-93.8-23.6-1.2.2-2.3-.5-2.5-1.7-.2-1.2.5-2.3 1.7-2.5 64.4-12.9 97.5 24.6 97.9 24.9.8.9.7 2.2-.2 3C794.8 1037.9 794.3 1038.1 793.8 1038.1z"/><path fill="#ffffc5" d="M688.2,1007.1c0,0-25.6-18.3-8.3-32c17.3-13.7,26.8-2,35.4,0.9c8.6,2.9,21.1,17,7.9,27.7
								c-13.2,10.7-26.1,9.8-26.1,9.8L688.2,1007.1z"/><path fill="#ffeeae" d="M697.1 1016.9c0 0 6.3-17.1 21.1-17.1 14.8 0 22.3 5.3 22.3 17.1 0 11.7-7.8 17.2-8.6 21.8s-14.1 10.8-18.8 8.3S691.1 1030.7 697.1 1016.9zM697.1 1013.5c0 0-5.4-20.4-12.3-26.2-6.9-5.8-8.8-6-16-1.3s-7.1 17-10.7 22.8c-3.6 5.8-4.7 19.1 4.3 21.2s25.1.7 29.9-6.2C697.1 1016.9 697.1 1013.5 697.1 1013.5z"/><path fill="#ffffc5" d="M698.1,1017.8c-9-3.8-19.6-2.2-26.7,4.6c-2.3,2.2-4,4.8-4,7.7c0,9.7,7.6,20.7,18,17.7
								c10.4-3,13.7-1.4,20.2,0.5c6.5,1.9,19.8-5.6,16.9-14.6C720.8,1028.1,707.9,1021.9,698.1,1017.8z"/><circle cx="698" cy="1011.7" r="7.3" fill="#ffba34"/><path fill="#679208" d="M278.9 890.6c0 0 7.8 18.6-4.3 32.8C274.6 923.4 247.4 904.6 278.9 890.6zM228 952.3c0 0-12.6 5.1-17 22.1 0 0-14.1-17.2-1.7-27.9C221.6 935.8 234.5 937.2 228 952.3z"/><g><path fill="#679208" d="M386.7,903.6c0,0-8.3-22.7-22.9-26.8C363.9,876.9,350.1,902.5,386.7,903.6z"/></g><g><path fill="#679208" d="M497.1,871.3c0,0-11.8-20.3-35.4-20.3C461.7,851,453.8,888.5,497.1,871.3z"/></g><g><path fill="#679208" d="M594.6,863.4c0,0-15.1,26.7-37.5,27.2C557.1,890.6,558.5,854.3,594.6,863.4z"/></g><g><path fill="#679208" d="M718.2,927.7c0,0,11.7-19.2,0-37.1C718.2,890.6,695,914.3,718.2,927.7z"/></g><g><path fill="#679208" d="M771.5,996.5c0,0,15.9-6.4,14-27.9C785.5,968.6,757.2,972.4,771.5,996.5z"/></g><g><path fill="#679208" d="M830.9,1150c0,0-2-15.4-28.3-16.4c0,0,13.2,47.2,31.3,35.9L830.9,1150z"/></g><g><path fill="#679208" d="M828.1,1268.7c0,0,36.5,6,37.1-16.3C865.2,1252.4,839.5,1240.1,828.1,1268.7z"/></g><g><path fill="#679208" d="M802.6,1326.1c0,0,15.1-38.8,0-52.6C802.6,1273.5,778.9,1348.5,802.6,1326.1z"/></g><g><path fill="#679208" d="M788.1,1420.9c0,0,34.7,10.5,40.1-4.8C828.1,1416.2,777.2,1395.3,788.1,1420.9z"/></g><g><path fill="#679208" d="M828.1,1483.7c0,0-0.3,22.3,18.5,32.2c0,0,9.6-14-5.7-27.1L828.1,1483.7z"/></g><g><path fill="#679208" d="M272.9,1104.3c0,0,36.1-3.7,42.5-16.2c0,0,12.6,25.9-15.3,23.9C272.2,1110,272.9,1104.3,272.9,1104.3z"/></g><g><path fill="#679208" d="M214.5,1045.3c0,0-19.4,8-21.9,24.6c0,0,0,5.7,1.6,8.9c1.6,3.2,15.3-12.4,16.9-19.5
							C212.7,1052.2,214.5,1045.3,214.5,1045.3z"/></g><g><path fill="#679208" d="M604.6,733.2c0,0-29.9-7.8-28.8-26.7C575.9,706.5,602.9,701.9,604.6,733.2z"/></g><g><path fill="#679208" d="M629.4,797c0,0-12.2-20.6,3.1-41.9C632.5,755.2,649.2,812.4,629.4,797z"/></g><g><path fill="#679208" d="M710.6,834.7c0,0-22.2,29.2-44.3,18.2C666.3,852.9,679.7,826.6,710.6,834.7z"/></g><g><path fill="#679208" d="M794.3,832.5c0,0-8.4-22.7-24.9-26.7C769.3,805.9,762,838.3,794.3,832.5z"/></g><g><path fill="#679208" d="M886.4,823.3c0,0-5.2,26.4-26.9,29.2c0,0,1.6-26.9,14.2-28.1C886.4,823.3,886.4,823.3,886.4,823.3z"/></g><g><path fill="#679208" d="M942.6,814.3c0,0,4.2-12.9,5-21.1c0.8-8.2-5-14.7-5-14.7s29.4,20.8,12.6,31.1
						C938.4,819.8,942.6,814.3,942.6,814.3z"/></g><g><path fill="#679208" d="M1057.9,823.9c0,0,8.8,25.4,29.3,24.2C1087.2,848.1,1091,826.4,1057.9,823.9z"/></g><g><path fill="#679208" d="M1143.4,843.9c0,0,29.5,12.3,34.7,4.2C1178.1,848.1,1143.7,822,1143.4,843.9z"/></g><g><path fill="#679208" d="M1203.2,906.8c0,0-19,9.8-11.8,28.1C1191.4,934.9,1218.1,932.4,1203.2,906.8z"/></g><g><path fill="#679208" d="M1218.8,1014.4c0,0,17.1,15.2,14.2,37.4C1233,1051.7,1206.4,1044.6,1218.8,1014.4z"/></g><g><path fill="#679208" d="M1176.5,1092.7c0,0-35.4-0.4-40.6,22.5c0,0,24.8,3,31.5-7.8C1174.1,1096.6,1176.5,1092.7,1176.5,1092.7z"/></g><g><path fill="#679208" d="M1144.8,1152.1c0,0,26.5,31.5,7.2,51.3C1152,1203.4,1129.5,1176.9,1144.8,1152.1z"/></g><g><path fill="#679208" d="M1153.7,1306c0,0-30.7-0.4-38.3-20.9C1115.4,1285.1,1141.6,1276.3,1153.7,1306z"/></g><g><path fill="#679208" d="M1186,1384.9c0,0,17,5.6,32.7-2.4C1218.8,1382.5,1191.6,1364,1186,1384.9z"/></g><g><path fill="#679208" d="M1148.6,1475.2c0,0,12.5-22.3,5.2-35.2C1153.7,1440,1112.8,1506,1148.6,1475.2z"/></g><g><path fill="#679208" d="M1088,1512c0,0,23.4,18.1,42.3,8.5C1130.3,1520.5,1114.1,1492.2,1088,1512z"/></g><g><path fill="#679208" d="M1022.4,1596.2c0,0,6.4-38.9-13.9-47.2C1008.4,1549,1015.6,1640.3,1022.4,1596.2z"/></g><g><path fill="#679208" d="M1017.3,1671.1c0,0,38.4-13.3,45-33.6C1062.3,1637.5,1004.8,1636.6,1017.3,1671.1z"/></g><g><path fill="#ffaf82" d="M584.1,1225.1"/></g></g></g></switch></svg>