<?xml version="1.0" encoding="iso-8859-1"?>
<!-- Generator: Adobe Illustrator 19.0.0, SVG Export Plug-In . SVG Version: 6.00 Build 0)  -->
<svg version="1.1" id="Layer_1" xmlns="http://www.w3.org/2000/svg" xmlns:xlink="http://www.w3.org/1999/xlink" x="0px" y="0px"
	 viewBox="0 0 512 512" style="enable-background:new 0 0 512 512;" xml:space="preserve">
<circle style="fill:#324A5E;" cx="256" cy="256" r="256"/>
<path style="fill:#2B3B4E;" d="M508.74,296.863L373.922,162.047L188.768,297.662l-45.423,58.54L296.022,508.88
	C405.071,491.758,491.261,405.795,508.74,296.863z"/>
<path style="fill:#B5F1F4;" d="M113.778,256c0,78.355,63.367,141.896,141.648,142.208V113.792
	C177.145,114.104,113.778,177.645,113.778,256z"/>
<path style="fill:#9EDDDD;" d="M256,113.778c-0.193,0-0.381,0.014-0.574,0.014v284.415c0.193,0,0.381,0.014,0.574,0.014
	c78.546,0,142.222-63.676,142.222-142.222S334.546,113.778,256,113.778z"/>
<g>
	<rect x="247.38" y="113.778" style="fill:#84DBFF;" width="17.239" height="284.444"/>
	<path style="fill:#84DBFF;" d="M256,105.158c-83.175,0-150.842,67.667-150.842,150.842S172.825,406.842,256,406.842
		S406.842,339.175,406.842,256S339.175,105.158,256,105.158z M256,389.603c-19.646,0-38.45-13.309-52.948-37.471
		c-1.788-2.977-3.47-6.084-5.068-9.285c18.142,4.649,37.781,7.106,58.016,7.106c20.235,0,39.874-2.457,58.016-7.108
		c-1.598,3.201-3.281,6.308-5.068,9.285C294.45,376.294,275.646,389.603,256,389.603z M256,332.714
		c-23.697,0-46.401-3.587-66.417-10.297c-5.891-17.575-9.361-37.223-10.119-57.797h153.073
		c-0.759,20.575-4.229,40.224-10.119,57.797C302.401,329.126,279.697,332.714,256,332.714z M256,122.397
		c19.646,0,38.45,13.309,52.948,37.471c1.788,2.977,3.47,6.084,5.068,9.285c-18.142-4.649-37.781-7.106-58.016-7.106
		c-20.235,0-39.874,2.457-58.016,7.108c1.598-3.201,3.281-6.308,5.068-9.285C217.55,135.706,236.354,122.397,256,122.397z
		 M256,179.286c23.697,0,46.401,3.587,66.417,10.297c5.891,17.575,9.361,37.223,10.119,57.797H179.464
		c0.759-20.575,4.229-40.224,10.119-57.797C209.599,182.874,232.303,179.286,256,179.286z M349.789,247.38
		c-0.593-17.189-2.957-33.844-6.944-49.397c3.201,1.598,6.308,3.281,9.285,5.068c20.601,12.36,33.277,27.855,36.576,44.329H349.789z
		 M162.211,247.38h-38.919c3.3-16.474,15.975-31.968,36.576-44.329c2.977-1.788,6.084-3.47,9.285-5.068
		C165.167,213.537,162.804,230.191,162.211,247.38z M162.211,264.62c0.593,17.189,2.956,33.844,6.944,49.397
		c-3.201-1.598-6.308-3.281-9.285-5.068c-20.601-12.36-33.277-27.855-36.576-44.329L162.211,264.62L162.211,264.62z M349.789,264.62
		h38.919c-3.3,16.474-15.975,31.968-36.576,44.328c-2.977,1.788-6.084,3.47-9.285,5.068
		C346.833,298.463,349.196,281.809,349.789,264.62z M377.092,199.642c-4.825-4.017-10.18-7.827-16.091-11.373
		c-7.732-4.639-16.169-8.683-25.128-12.143c-3.46-8.961-7.504-17.396-12.143-25.128c-3.546-5.911-7.356-11.266-11.373-16.091
		C340.797,148.197,363.803,171.203,377.092,199.642z M199.642,134.908c-4.017,4.825-7.827,10.18-11.373,16.091
		c-4.639,7.732-8.683,16.169-12.143,25.128c-8.961,3.46-17.396,7.504-25.128,12.143c-5.911,3.546-11.266,7.356-16.091,11.373
		C148.197,171.203,171.203,148.197,199.642,134.908z M134.908,312.358c4.825,4.017,10.18,7.827,16.091,11.373
		c7.732,4.639,16.169,8.683,25.128,12.143c3.46,8.961,7.504,17.396,12.143,25.128c3.546,5.911,7.356,11.266,11.373,16.091
		C171.203,363.803,148.197,340.797,134.908,312.358z M312.358,377.092c4.017-4.825,7.827-10.18,11.373-16.091
		c4.639-7.732,8.683-16.169,12.143-25.128c8.961-3.46,17.396-7.504,25.128-12.143c5.911-3.546,11.266-7.356,16.091-11.373
		C363.803,340.797,340.797,363.803,312.358,377.092z"/>
</g>
<path style="fill:#31BAFD;" d="M256,105.158c-0.191,0-0.383,0.007-0.574,0.007v301.67c0.191,0,0.383,0.007,0.574,0.007
	c83.175,0,150.842-67.667,150.842-150.842S339.175,105.158,256,105.158z M377.092,199.642c-4.825-4.017-10.18-7.827-16.091-11.373
	c-7.732-4.639-16.169-8.683-25.128-12.143c-3.46-8.961-7.504-17.396-12.143-25.128c-3.546-5.911-7.356-11.266-11.373-16.091
	C340.797,148.197,363.803,171.203,377.092,199.642z M388.708,247.38h-38.919c-0.593-17.189-2.957-33.844-6.944-49.397
	c3.201,1.598,6.308,3.281,9.285,5.068C372.733,215.412,385.408,230.907,388.708,247.38z M264.62,123.292
	c16.474,3.3,31.968,15.975,44.328,36.576c1.788,2.977,3.47,6.084,5.068,9.285c-15.553-3.987-32.209-6.347-49.397-6.944V123.292z
	 M264.62,179.45c20.573,0.762,40.222,4.243,57.797,10.133c5.891,17.575,9.361,37.223,10.119,57.797H264.62V179.45z M264.62,264.62
	h67.917c-0.759,20.575-4.229,40.224-10.119,57.797c-17.577,5.891-37.224,9.371-57.797,10.133V264.62z M264.62,388.708v-38.919
	c17.186-0.596,33.844-2.957,49.397-6.944c-1.598,3.201-3.281,6.308-5.068,9.285C296.588,372.733,281.093,385.408,264.62,388.708z
	 M312.358,377.092c4.017-4.825,7.827-10.18,11.373-16.091c4.639-7.732,8.683-16.169,12.143-25.128
	c8.961-3.46,17.396-7.504,25.128-12.143c5.911-3.546,11.266-7.356,16.091-11.373C363.803,340.797,340.797,363.803,312.358,377.092z
	 M352.132,308.948c-2.977,1.788-6.084,3.47-9.285,5.068c3.987-15.553,6.351-32.208,6.944-49.397h38.919
	C385.408,281.093,372.733,296.588,352.132,308.948z"/>
<path style="fill:#66B31B;" d="M270.801,391.447l11.105-19.28c13.493-23.424,5.442-53.353-17.98-66.846l-19.28-11.107l-11.105,19.28
	c-13.493,23.424-5.442,53.353,17.98,66.846L270.801,391.447z"/>
<path style="fill:#599B13;" d="M274.408,408.147c-2.281,0-4.37-1.522-4.992-3.831l-19.713-73.287
	c-0.741-2.758,0.895-5.596,3.651-6.339c2.762-0.731,5.596,0.895,6.339,3.651l19.713,73.287c0.741,2.758-0.895,5.596-3.651,6.339
	C275.304,408.088,274.853,408.147,274.408,408.147z"/>
<path style="fill:#79D720;" d="M274.277,404.054v-33.613c0-40.838,33.106-73.944,73.943-73.944h33.613v33.613
	c0,40.838-33.106,73.943-73.944,73.943H274.277z"/>
<path style="fill:#66B31B;" d="M274.277,403.218v0.836h33.613c40.838,0,73.944-33.106,73.944-73.943v-33.613h-0.836L274.277,403.218
	z"/>
<path style="fill:#599B13;" d="M259.432,424.07c-1.324,0-2.646-0.505-3.656-1.515c-2.02-2.019-2.02-5.294,0-7.313l81.065-81.065
	c2.02-2.02,5.292-2.02,7.313,0c2.02,2.019,2.02,5.294,0,7.313l-81.065,81.065C262.078,423.565,260.756,424.07,259.432,424.07z"/>
<path style="fill:#528C0E;" d="M343.695,333.802L255.4,422.097c0.122,0.155,0.233,0.317,0.376,0.46
	c1.01,1.01,2.334,1.515,3.656,1.515s2.646-0.505,3.656-1.515l81.065-81.065c2.02-2.019,2.02-5.294,0-7.313
	C344.012,334.034,343.85,333.924,343.695,333.802z"/>
<g>
</g>
<g>
</g>
<g>
</g>
<g>
</g>
<g>
</g>
<g>
</g>
<g>
</g>
<g>
</g>
<g>
</g>
<g>
</g>
<g>
</g>
<g>
</g>
<g>
</g>
<g>
</g>
<g>
</g>
</svg>
