<svg xmlns="http://www.w3.org/2000/svg" data-name="Layer 1" viewBox="0 0 650 512"><defs><linearGradient id="a" x1="385.269" x2="197.929" y1="244.818" y2="466.678" gradientUnits="userSpaceOnUse"><stop offset="0" stop-color="#f9ae2b"/><stop offset="1" stop-color="#fff" stop-opacity="0"/></linearGradient></defs><circle cx="344.862" cy="246.113" r="173.618" fill="#dbe8ec"/><path fill="#dbe8ec" d="M563.90415,249.025V230.83381a13.07945,13.07945,0,0,0-13.07945-13.07945h-46.166a13.07945,13.07945,0,0,1-13.07946-13.07945V186.48375a13.07946,13.07946,0,0,1,13.07946-13.07946h1.45764a13.07945,13.07945,0,0,0,13.07945-13.07945V142.13368a13.07945,13.07945,0,0,0-13.07945-13.07945H174.20918a13.07945,13.07945,0,0,0-13.07945,13.07945v18.19116a13.07945,13.07945,0,0,0,13.07945,13.07945h0a13.07945,13.07945,0,0,1,13.07945,13.07946v18.19116a13.07945,13.07945,0,0,1-13.07945,13.07945H123.6298a13.07945,13.07945,0,0,0-13.07945,13.07945V249.025a13.07945,13.07945,0,0,0,13.07945,13.07946h19.84658a13.07945,13.07945,0,0,1,13.07945,13.07945v18.19124a13.07945,13.07945,0,0,1-13.07945,13.07946h-.048A13.07945,13.07945,0,0,0,130.349,319.534V337.7251a13.07945,13.07945,0,0,0,13.07945,13.07946h2.87139A13.07945,13.07945,0,0,1,159.37926,363.884v18.19125a13.07945,13.07945,0,0,1-13.07945,13.07945H99.1753a13.07945,13.07945,0,0,0-13.07945,13.07945v18.19116A13.07945,13.07945,0,0,0,99.1753,439.50477h413.963a13.07945,13.07945,0,0,0,13.07945-13.07945V408.23416a13.07945,13.07945,0,0,0-13.07945-13.07945H501.79779a13.07945,13.07945,0,0,1-13.07945-13.07945V363.884a13.07945,13.07945,0,0,1,13.07945-13.07945h26.73986A13.07945,13.07945,0,0,0,541.6171,337.7251V319.534a13.07945,13.07945,0,0,0-13.07945-13.07945H520.426a13.07945,13.07945,0,0,1-13.07945-13.07946V275.18388A13.07945,13.07945,0,0,1,520.426,262.10443H550.8247A13.07945,13.07945,0,0,0,563.90415,249.025Z"/><line x1="163.784" x2="194.105" y1="257.056" y2="257.056" fill="none" stroke="#b9d4db" stroke-linecap="round" stroke-miterlimit="10" stroke-width="3"/><line x1="163.784" x2="194.105" y1="265.796" y2="265.796" fill="none" stroke="#b9d4db" stroke-linecap="round" stroke-miterlimit="10" stroke-width="3"/><line x1="163.784" x2="194.105" y1="274.535" y2="274.535" fill="none" stroke="#b9d4db" stroke-linecap="round" stroke-miterlimit="10" stroke-width="3"/><line x1="441.29" x2="471.61" y1="329.084" y2="329.084" fill="none" stroke="#b9d4db" stroke-linecap="round" stroke-miterlimit="10" stroke-width="3"/><line x1="441.29" x2="471.61" y1="337.823" y2="337.823" fill="none" stroke="#b9d4db" stroke-linecap="round" stroke-miterlimit="10" stroke-width="3"/><line x1="441.29" x2="471.61" y1="346.562" y2="346.562" fill="none" stroke="#b9d4db" stroke-linecap="round" stroke-miterlimit="10" stroke-width="3"/><line x1="307.44" x2="337.76" y1="103.344" y2="103.344" fill="none" stroke="#b9d4db" stroke-linecap="round" stroke-miterlimit="10" stroke-width="3"/><line x1="307.44" x2="337.76" y1="112.083" y2="112.083" fill="none" stroke="#b9d4db" stroke-linecap="round" stroke-miterlimit="10" stroke-width="3"/><line x1="307.44" x2="337.76" y1="120.823" y2="120.823" fill="none" stroke="#b9d4db" stroke-linecap="round" stroke-miterlimit="10" stroke-width="3"/><circle cx="392.443" cy="415.084" r="12.96" fill="#b9d4db"/><circle cx="375.163" cy="384.124" r="6.72" fill="#b9d4db"/><circle cx="419.121" cy="390.844" r="9.6" fill="#b9d4db"/><circle cx="208.41" cy="147.091" r="15.42" fill="#b9d4db"/><circle cx="178.945" cy="136.108" r="8.032" fill="#b9d4db"/><circle cx="186.322" cy="108.805" r="4.633" fill="#b9d4db"/><circle cx="211.97" cy="112.083" r="11.107" fill="#b9d4db"/><circle cx="484.002" cy="187.359" r="15.42" fill="#b9d4db"/><circle cx="452.605" cy="189.097" r="8.032" fill="#b9d4db"/><circle cx="453.264" cy="135.399" r="6.952" fill="#b9d4db"/><circle cx="448.429" cy="161.125" r="4.633" fill="#b9d4db"/><circle cx="473.242" cy="153.856" r="11.107" fill="#b9d4db"/><circle cx="374.151" cy="187.015" r="36.865" fill="#d62828"/><circle cx="396.007" cy="168.761" r="5.783" fill="#f9ae2b"/><ellipse cx="361.718" cy="212.316" fill="#409cb5" rx="42.828" ry="146.375" transform="rotate(-63.832 361.718 212.316)"/><path fill="#3086a3" d="M372.95521,189.44767c63.439,31.17224,109.9088,70.33955,113.61187,93.88083a14.99154,14.99154,0,0,0,6.52336-6.45969c10.43139-21.229-39.92978-67.33967-112.48453-102.99116s-139.82768-47.34317-150.25907-26.11413a14.99578,14.99578,0,0,0-1.12833,9.11066C250.11678,145.42135,309.51625,158.27543,372.95521,189.44767Z"/><ellipse cx="354.187" cy="227.643" fill="#f9ae2b" rx="17.077" ry="58.364" transform="rotate(-63.832 354.187 227.643)"/><path fill="#ea9918" d="M358.66773,218.52436c25.29508,12.42934,43.824,28.04656,45.30058,37.4332a5.97763,5.97763,0,0,0,2.60106-2.57568c4.15932-8.46467-15.92124-26.85041-44.85106-41.06577s-55.75363-18.87718-59.91295-10.41251a5.97924,5.97924,0,0,0-.44989,3.63271C309.68825,200.96971,333.37266,206.095,358.66773,218.52436Z"/><polygon fill="url(#a)" points="344.814 431.385 114.668 431.385 301.355 205.536 405.044 256.486 344.814 431.385"/></svg>